<svg width="48" height="25" viewBox="0 0 48 25" fill="none" xmlns="http://www.w3.org/2000/svg">
<path d="M11.0489 3.26348C11.3483 2.34217 12.6517 2.34217 12.9511 3.26348L14.4697 7.93724C14.6035 8.34926 14.9875 8.62822 15.4207 8.62822H20.335C21.3037 8.62822 21.7065 9.86784 20.9228 10.4372L16.947 13.3258C16.5966 13.5804 16.4499 14.0318 16.5838 14.4438L18.1024 19.1176C18.4017 20.0389 17.3472 20.805 16.5635 20.2356L12.5878 17.3471C12.2373 17.0924 11.7627 17.0924 11.4122 17.3471L7.43648 20.2356C6.65276 20.805 5.59828 20.0389 5.89763 19.1176L7.41623 14.4438C7.55011 14.0318 7.40345 13.5804 7.05296 13.3258L3.07722 10.4372C2.29351 9.86784 2.69628 8.62822 3.66501 8.62822H8.57929C9.01252 8.62822 9.39647 8.34926 9.53035 7.93724L11.0489 3.26348Z" fill="#D9D9D9"/>
<path d="M30.5342 12.7563L29.0918 12.4077L29.6455 7.3833H35.1211V8.88037H31.1426L30.8828 11.2046C31.0241 11.118 31.2292 11.0314 31.498 10.9448C31.7715 10.8537 32.0791 10.8081 32.4209 10.8081C32.8949 10.8081 33.3187 10.8856 33.6924 11.0405C34.0661 11.1909 34.3828 11.4097 34.6426 11.6968C34.9069 11.9839 35.1051 12.3348 35.2373 12.7495C35.374 13.1597 35.4424 13.6245 35.4424 14.144C35.4424 14.5998 35.374 15.0282 35.2373 15.4292C35.1051 15.8257 34.9023 16.1789 34.6289 16.4888C34.3555 16.7941 34.0114 17.0356 33.5967 17.2134C33.182 17.3866 32.6943 17.4731 32.1338 17.4731C31.71 17.4731 31.3021 17.4116 30.9102 17.2886C30.5228 17.161 30.1742 16.9764 29.8643 16.7349C29.5544 16.4888 29.306 16.188 29.1191 15.8325C28.9368 15.4771 28.8366 15.0692 28.8184 14.6089H30.6025C30.6344 14.9142 30.7165 15.174 30.8486 15.3882C30.9808 15.6024 31.154 15.7664 31.3682 15.8804C31.5869 15.9943 31.8398 16.0513 32.127 16.0513C32.3867 16.0513 32.61 16.0034 32.7969 15.9077C32.9883 15.8075 33.1455 15.6685 33.2686 15.4907C33.3916 15.313 33.4827 15.1034 33.542 14.8618C33.6012 14.6203 33.6309 14.356 33.6309 14.0688C33.6309 13.7909 33.5967 13.5379 33.5283 13.3101C33.46 13.0776 33.3551 12.8771 33.2139 12.7085C33.0726 12.5399 32.8949 12.41 32.6807 12.3188C32.471 12.2277 32.2249 12.1821 31.9424 12.1821C31.5641 12.1821 31.2725 12.2391 31.0674 12.353C30.8669 12.467 30.6891 12.6014 30.5342 12.7563ZM36.9121 16.4546C36.9121 16.1812 37.0055 15.951 37.1924 15.7642C37.3792 15.5773 37.6322 15.4839 37.9512 15.4839C38.2702 15.4839 38.5231 15.5773 38.71 15.7642C38.8968 15.951 38.9902 16.1812 38.9902 16.4546C38.9902 16.7235 38.8968 16.9513 38.71 17.1382C38.5231 17.3205 38.2702 17.4116 37.9512 17.4116C37.6322 17.4116 37.3792 17.3205 37.1924 17.1382C37.0055 16.9513 36.9121 16.7235 36.9121 16.4546ZM47.3096 11.5054V13.1802C47.3096 13.9458 47.2321 14.5998 47.0771 15.1421C46.9222 15.6844 46.6989 16.1287 46.4072 16.4751C46.1156 16.8169 45.7669 17.0698 45.3613 17.2339C44.9557 17.3934 44.5046 17.4731 44.0078 17.4731C43.6113 17.4731 43.2422 17.423 42.9004 17.3228C42.5586 17.2179 42.251 17.0584 41.9775 16.8442C41.7087 16.6255 41.4762 16.3475 41.2803 16.0103C41.0889 15.673 40.9408 15.2697 40.8359 14.8003C40.7357 14.3309 40.6855 13.7909 40.6855 13.1802V11.5054C40.6855 10.7397 40.763 10.0881 40.918 9.55029C41.0775 9.01253 41.3031 8.57275 41.5947 8.23096C41.8864 7.88916 42.235 7.64079 42.6406 7.48584C43.0462 7.32633 43.4974 7.24658 43.9941 7.24658C44.3952 7.24658 44.7643 7.29671 45.1016 7.39697C45.4434 7.49723 45.7487 7.65446 46.0176 7.86865C46.291 8.07829 46.5234 8.35173 46.7148 8.68896C46.9062 9.02165 47.0521 9.42269 47.1523 9.89209C47.2572 10.3569 47.3096 10.8947 47.3096 11.5054ZM45.5049 13.4263V11.2524C45.5049 10.8696 45.4821 10.5369 45.4365 10.2544C45.3955 9.96729 45.334 9.72347 45.252 9.52295C45.1699 9.32243 45.0674 9.16064 44.9443 9.0376C44.8213 8.90999 44.68 8.81657 44.5205 8.75732C44.361 8.69808 44.1855 8.66846 43.9941 8.66846C43.7572 8.66846 43.5452 8.71631 43.3584 8.81201C43.1715 8.90316 43.0143 9.04899 42.8867 9.24951C42.7591 9.45003 42.6611 9.71663 42.5928 10.0493C42.529 10.3774 42.4971 10.7785 42.4971 11.2524V13.4263C42.4971 13.8091 42.5176 14.144 42.5586 14.4312C42.6042 14.7183 42.668 14.9644 42.75 15.1694C42.8366 15.3745 42.9391 15.5431 43.0576 15.6753C43.1807 15.8029 43.3219 15.8986 43.4814 15.9624C43.641 16.0216 43.8164 16.0513 44.0078 16.0513C44.2493 16.0513 44.4613 16.0034 44.6436 15.9077C44.8304 15.812 44.9876 15.6616 45.1152 15.4565C45.2428 15.2469 45.3385 14.9757 45.4023 14.6431C45.4707 14.3058 45.5049 13.9002 45.5049 13.4263Z" fill="black"/>
</svg>
